<svg width="17" height="17" viewBox="0 0 17 17" fill="none" xmlns="http://www.w3.org/2000/svg">
<path d="M12.4812 0.800049H4.1687C3.18271 0.800976 2.23737 1.19307 1.54017 1.89027C0.842971 2.58747 0.450878 3.53281 0.449951 4.5188V12.8313C0.450878 13.8173 0.842971 14.7626 1.54017 15.4598C2.23737 16.157 3.18271 16.5491 4.1687 16.55H12.4812C13.4672 16.5491 14.4125 16.157 15.1097 15.4598C15.8069 14.7626 16.199 13.8173 16.2 12.8313V4.5188C16.199 3.53281 15.8069 2.58747 15.1097 1.89027C14.4125 1.19307 13.4672 0.800976 12.4812 0.800049ZM10.9762 11.3228C10.3621 11.9359 9.5543 12.317 8.69063 12.4012C7.82695 12.4854 6.9608 12.2675 6.23979 11.7846C5.51879 11.3017 4.98756 10.5837 4.73665 9.75301C4.48573 8.9223 4.53067 8.03029 4.86379 7.229C5.19691 6.42771 5.7976 5.76674 6.56348 5.35875C7.32935 4.95075 8.21302 4.82098 9.06386 4.99155C9.91471 5.16213 10.6801 5.62248 11.2295 6.29416C11.7789 6.96584 12.0784 7.80728 12.077 8.67505C12.0764 9.16706 11.9789 9.65413 11.79 10.1084C11.6012 10.5628 11.3246 10.9754 10.9762 11.3228ZM13.9075 5.05955C13.6887 5.2776 13.4011 5.41296 13.0937 5.44253C12.7862 5.47211 12.4781 5.39405 12.2218 5.22168C11.9655 5.04932 11.777 4.79335 11.6885 4.49747C11.5999 4.20158 11.6168 3.88414 11.7363 3.59933C11.8558 3.31453 12.0704 3.08002 12.3435 2.93586C12.6167 2.79169 12.9314 2.7468 13.2339 2.80885C13.5365 2.87091 13.8081 3.03606 14.0024 3.2761C14.1968 3.51615 14.3017 3.81621 14.2995 4.12505C14.2974 4.47611 14.1565 4.81209 13.9075 5.05955Z" fill="black"/>
</svg>
