<svg width="17" height="16" viewBox="0 0 17 16" fill="none" xmlns="http://www.w3.org/2000/svg">
<path d="M9.26995 6.4849C9.71795 5.7849 10.5195 4.80665 12.3132 4.80665C14.534 4.80665 16.2 6.2574 16.2 9.37765V15.1999H12.8242V9.7749C12.8242 8.4099 12.336 7.47715 11.1145 7.47715C10.1817 7.47715 9.62695 8.1054 9.38195 8.71265C9.29518 8.97779 9.25724 9.25647 9.26995 9.53515V15.1999H5.89245C5.89245 15.1999 5.93795 5.9984 5.89245 5.0499H9.26995V6.4849ZM2.36095 0.149902C1.20595 0.149902 0.449951 0.907652 0.449951 1.8999C0.449951 2.89215 1.1832 3.6499 2.31545 3.6499H2.3382C3.51595 3.6499 4.2492 2.8694 4.2492 1.8999C4.2492 0.930402 3.51595 0.149902 2.36095 0.149902ZM0.651201 15.1999H4.02695V5.0499H0.651201V15.1999Z" fill="black"/>
</svg>
