<svg width="125" height="80" viewBox="0 0 125 80" fill="none" xmlns="http://www.w3.org/2000/svg">
<path d="M67.7358 48.9992C66.1538 41.6292 64.9509 35.8811 64.1277 31.754L1.61186 1.6123L67.7358 48.9992Z" fill="white"/>
<path fill-rule="evenodd" clip-rule="evenodd" d="M0.226128 0.790024C0.652845 0.070887 1.55871 -0.202399 2.31194 0.160767L64.8278 30.3024C65.2833 30.5221 65.6093 30.9429 65.7083 31.4388C66.5292 35.5545 67.7302 41.2937 69.3117 48.6611C69.4514 49.3121 69.1764 49.9821 68.6195 50.3471C68.0626 50.7121 67.3385 50.6971 66.7973 50.3092L0.673321 2.9223C-0.00637312 2.43521 -0.200589 1.50916 0.226128 0.790024ZM17.6966 11.1566L65.2892 45.2632C64.2174 40.2288 63.3559 36.093 62.7053 32.8573L17.6966 11.1566Z" fill="black"/>
<path fill-rule="evenodd" clip-rule="evenodd" d="M87.8494 15.8878L52.476 10.4163L1.61186 1.6123L67.8986 28.7341L87.8494 15.8878Z" fill="white"/>
<path fill-rule="evenodd" clip-rule="evenodd" d="M0.0629779 1.16828C0.29019 0.37778 1.07624 -0.114772 1.88669 0.0255081L52.7367 8.82701L88.0958 14.2963C88.7573 14.3987 89.2867 14.8993 89.4258 15.5541C89.5649 16.2089 89.2847 16.8815 88.7219 17.2439L68.771 30.0902C68.3287 30.375 67.7752 30.426 67.2883 30.2268L1.00156 3.10501C0.240308 2.79354 -0.164234 1.95878 0.0629779 1.16828ZM15.916 5.72486L67.7319 26.9258L83.4071 16.8326L52.2297 12.0101C52.2202 12.0086 52.2107 12.007 52.2012 12.0054L15.916 5.72486Z" fill="black"/>
<path fill-rule="evenodd" clip-rule="evenodd" d="M61.18 34.822L67.7358 48.9996L67.8986 28.7345C58.76 24.7125 36.6644 15.6718 1.61186 1.6123L61.18 34.822Z" fill="white"/>
<path fill-rule="evenodd" clip-rule="evenodd" d="M0.157238 0.918519C0.523271 0.15104 1.4226 -0.200015 2.21178 0.116524C37.256 14.1727 59.3794 23.2244 68.5477 27.2594C69.1369 27.5187 69.5152 28.1037 69.5101 28.7474L69.3473 49.0125C69.3413 49.7667 68.813 50.4158 68.0758 50.5749C67.3385 50.734 66.5896 50.3605 66.273 49.676L59.9373 35.9742L0.827099 3.01986C0.0844222 2.60581 -0.208794 1.686 0.157238 0.918519ZM24.7208 12.6505L61.9647 33.4143C62.2624 33.5802 62.4997 33.8362 62.6428 34.1455L66.182 41.7995L66.2785 29.7845C59.1089 26.6624 45.2605 20.9525 24.7208 12.6505Z" fill="black"/>
<path fill-rule="evenodd" clip-rule="evenodd" d="M61.18 34.821L42.6294 59.6492L1.61186 1.61182L61.18 34.821Z" fill="white"/>
<path fill-rule="evenodd" clip-rule="evenodd" d="M0.41352 0.534443C0.916454 -0.0252106 1.73973 -0.162358 2.39693 0.204032L61.9651 33.4133C62.371 33.6395 62.6594 34.03 62.7564 34.4845C62.8534 34.939 62.7495 35.4132 62.4714 35.7855L43.9207 60.6136C43.612 61.0268 43.1241 61.2672 42.6084 61.2604C42.0926 61.2536 41.6113 61.0003 41.3136 60.5791L0.296126 2.54176C-0.138142 1.92729 -0.0894143 1.0941 0.41352 0.534443ZM7.02057 6.4719L42.6659 56.908L58.787 35.3316L7.02057 6.4719Z" fill="black"/>
<path fill-rule="evenodd" clip-rule="evenodd" d="M120.566 45.1601C121.319 45.634 121.546 46.629 121.072 47.3823L119.708 46.5242C121.072 47.3823 121.071 47.383 121.071 47.3838L121.07 47.3853L121.068 47.3887L121.063 47.3969L121.049 47.4185C121.038 47.4352 121.024 47.4564 121.007 47.4818C120.972 47.5328 120.925 47.6009 120.864 47.6843C120.742 47.851 120.567 48.079 120.332 48.3528C119.864 48.9004 119.161 49.6325 118.187 50.425C116.235 52.0139 113.211 53.8323 108.846 54.8987C104.082 56.063 99.3829 55.593 95.9279 54.8631C94.191 54.4962 92.7434 54.0582 91.7252 53.71C91.2155 53.5357 90.8118 53.3834 90.5314 53.2729C90.3911 53.2176 90.2816 53.1727 90.205 53.1407C90.1667 53.1247 90.1366 53.1119 90.1149 53.1026L90.0888 53.0913L90.0806 53.0877L90.0766 53.086C90.0761 53.0858 90.0757 53.0856 90.7248 51.6105L90.0757 53.0856C89.2611 52.7271 88.8913 51.7761 89.2498 50.9614C89.608 50.1473 90.5581 49.7775 91.3724 50.1348C91.3726 50.1349 91.3729 50.1351 91.3732 50.1352L91.3737 50.1354L91.386 50.1407C91.3984 50.146 91.4191 50.1548 91.4477 50.1668C91.5051 50.1908 91.5944 50.2274 91.7135 50.2744C91.9519 50.3684 92.309 50.5034 92.7679 50.6603C93.6869 50.9745 95.0074 51.3744 96.5942 51.7096C99.7865 52.3841 103.957 52.7754 108.081 51.7678C111.942 50.8245 114.539 49.2384 116.153 47.9252C116.962 47.2667 117.528 46.6733 117.883 46.2583C118.06 46.0508 118.185 45.8881 118.26 45.7845C118.298 45.7327 118.323 45.6958 118.337 45.6754C118.343 45.6662 118.347 45.6604 118.349 45.6582C118.825 44.9112 119.815 44.6879 120.566 45.1601ZM69.943 61.8258C70.4919 61.1254 71.5046 61.0024 72.2052 61.551C72.2053 61.5511 72.205 61.5509 72.2052 61.551L71.2115 62.8198C72.2055 61.5513 72.2053 61.5511 72.2052 61.551L72.2105 61.5552L72.2325 61.5723C72.2527 61.588 72.2841 61.6122 72.3264 61.6445C72.4109 61.7092 72.5388 61.8063 72.7081 61.9327C73.0466 62.1853 73.5501 62.5545 74.2012 63.0136C75.5039 63.9322 77.3949 65.2092 79.7356 66.633C84.4252 69.4858 90.8797 72.9035 97.9959 75.2205C97.9959 75.2205 97.9959 75.2205 97.9959 75.2205C104.309 77.2758 110.266 76.9742 114.671 76.144C116.87 75.7296 118.668 75.1859 119.909 74.7491C120.529 74.5308 121.008 74.3398 121.327 74.2059C121.486 74.1389 121.605 74.0863 121.682 74.0517C121.706 74.041 121.725 74.032 121.741 74.0249C121.75 74.0206 121.758 74.0169 121.765 74.0139L121.781 74.0061L122.479 75.4587C121.781 74.0061 121.782 74.0059 121.782 74.0056C121.783 74.0055 121.783 74.0054 121.783 74.0053C121.783 74.0053 121.783 74.0054 121.783 74.0053C122.585 73.6214 123.547 73.9593 123.932 74.7609C124.317 75.5632 123.979 76.526 123.177 76.9114L122.507 75.5166C123.177 76.9114 123.176 76.9116 123.176 76.9119L123.174 76.9126L123.171 76.9144L123.16 76.9195L123.126 76.9355C123.097 76.9487 123.058 76.967 123.007 76.9898C122.906 77.0355 122.761 77.0993 122.575 77.1776C122.202 77.334 121.664 77.5482 120.979 77.7892C119.611 78.2708 117.654 78.8616 115.268 79.3113C110.503 80.2094 103.97 80.5549 96.9981 78.2853C89.5645 75.8649 82.8761 72.316 78.0605 69.3866C75.6485 67.9194 73.6963 66.6014 72.3438 65.6477C71.6674 65.1707 71.1404 64.7844 70.7803 64.5157C70.6003 64.3813 70.4619 64.2763 70.3674 64.2039C70.3201 64.1678 70.2838 64.1398 70.2588 64.1204L70.2296 64.0977L70.2214 64.0913L70.2181 64.0887C70.2178 64.0885 70.2175 64.0883 71.2115 62.8198L70.2175 64.0883C69.517 63.5393 69.3941 62.5264 69.943 61.8258Z" fill="black"/>
</svg>
