<svg width="20" height="17" viewBox="0 0 20 17" fill="none" xmlns="http://www.w3.org/2000/svg">
<path d="M19.95 2.65078C19.2293 2.96925 18.4651 3.17831 17.6827 3.27106C18.5063 2.77814 19.1227 2.00283 19.4174 1.08939C18.6415 1.54877 17.793 1.8728 16.9085 2.04761C16.3667 1.47019 15.664 1.06887 14.8914 0.895698C14.1188 0.722528 13.312 0.785501 12.5757 1.07645C11.8393 1.3674 11.2073 1.8729 10.7618 2.52738C10.3162 3.18186 10.0776 3.95513 10.0768 4.74689C10.077 5.04996 10.1115 5.35203 10.1795 5.64736C8.61136 5.56711 7.07755 5.15837 5.67742 4.44762C4.27729 3.73687 3.04206 2.73996 2.05173 1.52145C1.54645 2.39014 1.39083 3.4186 1.61649 4.39789C1.84214 5.37718 2.43214 6.23383 3.26662 6.79381C2.63984 6.77143 2.02719 6.60141 1.47851 6.29759V6.34678C1.47909 7.25839 1.79477 8.14177 2.37205 8.8473C2.94934 9.55283 3.75275 10.0371 4.6462 10.2182C4.30667 10.3104 3.9564 10.3572 3.60456 10.3572C3.3554 10.3569 3.10684 10.3326 2.86237 10.2845C3.11432 11.0681 3.60466 11.7536 4.26495 12.2452C4.92523 12.7368 5.72252 13.0099 6.54553 13.0265C5.1467 14.124 3.41904 14.7185 1.64106 14.7141C1.32661 14.7136 1.01243 14.6957 0.699951 14.6606C2.5052 15.8216 4.60668 16.4379 6.75301 16.4359C14.0252 16.4359 17.9886 10.4192 17.9886 5.20247L17.9758 4.69128C18.7514 4.13568 19.4203 3.44439 19.95 2.65078Z" fill="black"/>
</svg>
