<svg width="19" height="13" viewBox="0 0 19 13" fill="none" xmlns="http://www.w3.org/2000/svg">
<path d="M15.2886 0.550049H3.71139C3.32242 0.549803 2.93722 0.623406 2.57781 0.766648C2.2184 0.90989 1.89184 1.11996 1.6168 1.38485C1.34176 1.64974 1.12364 1.96424 0.974902 2.31038C0.826169 2.65652 0.749745 3.0275 0.750001 3.40211V9.36465C0.749745 9.73926 0.826169 10.1102 0.974902 10.4564C1.12364 10.8025 1.34176 11.117 1.6168 11.3819C1.89184 11.6468 2.2184 11.8569 2.57781 12.0001C2.93722 12.1434 3.32242 12.217 3.71139 12.2167H15.2886C15.6776 12.217 16.0628 12.1434 16.4222 12.0001C16.7816 11.8569 17.1082 11.6468 17.3832 11.3819C17.6582 11.117 17.8764 10.8025 18.0251 10.4564C18.1738 10.1102 18.2503 9.73926 18.25 9.36465V3.40211C18.2503 3.0275 18.1738 2.65652 18.0251 2.31038C17.8764 1.96424 17.6582 1.64974 17.3832 1.38485C17.1082 1.11996 16.7816 0.90989 16.4222 0.766648C16.0628 0.623406 15.6776 0.549803 15.2886 0.550049ZM10.2331 7.68301L8.01444 8.78226C7.97298 8.80066 7.9274 8.8088 7.88184 8.80594C7.83628 8.80307 7.79218 8.7893 7.75355 8.76586C7.71492 8.74242 7.68298 8.71006 7.66063 8.67172C7.63828 8.63338 7.62622 8.59027 7.62556 8.5463V4.22046C7.62622 4.17649 7.63828 4.13338 7.66063 4.09504C7.68298 4.0567 7.71492 4.02434 7.75355 4.0009C7.79218 3.97747 7.83628 3.96369 7.88184 3.96083C7.9274 3.95796 7.97298 3.9661 8.01444 3.98451L10.2408 5.08376L12.3914 6.1493C12.4364 6.17116 12.4742 6.20461 12.5006 6.24594C12.527 6.28727 12.541 6.33485 12.541 6.38338C12.541 6.43191 12.527 6.47949 12.5006 6.52082C12.4742 6.56215 12.4364 6.59561 12.3914 6.61746L10.2331 7.68301Z" fill="black"/>
</svg>
